<svg width="20" height="20" xmlns="http://www.w3.org/2000/svg"><path fill="none" d="M-1-1h3.25v3.25H-1z"/><g><path fill="none" stroke-width="null" stroke-opacity="null" stroke-linejoin="null" stroke-linecap="null" stroke="#4c4c4c" d="M1.28 12.44l4.13 5.75"/><path fill="none" stroke="#4c4c4c" stroke-width="null" stroke-opacity="null" d="M2.76 9.4c.6-5.7-.01.17-.04.29C2.69 9.8.02 15 2.09 11"/><path fill="none" stroke-width="null" stroke-opacity="null" stroke-linejoin="null" stroke-linecap="null" stroke="#4c4c4c" d="M2.92 7.03l2.71-2.72"/><path fill="none" stroke="#4c4c4c" stroke-width="null" stroke-opacity="null" d="M5.42 4.55c.37-.3.52-.37.9-.37.37 0 1.44-.02 1.52 0 .08.01.12.06.18.1.05.04 8.1 9.52.2.16"/><path fill="none" stroke-width="null" stroke-opacity="null" stroke-linejoin="null" stroke-linecap="null" stroke="#4c4c4c" d="M7.05 7.08l3.65 3.16M5.62 8.14l3.74 3.83"/><path fill="none" stroke="#4c4c4c" stroke-width="null" stroke-opacity="null" d="M9.05 11.82c.08 0 .08.01.15.04l.11.07c.05.02.04.06.11.08.08.02.09.05.12.07.02.03.1 0 .22 0h.56c.18 0 .21.02.3.04.1.02.25.07.33.07h.33c.04 0 .09-.02.11 0 .03.03 0 .08 0 .11v.53c0 .07 0 .14.04.22.08.15.12.14.19.26.01.03 0 .07.07.11l.15.07c.04.04.19.02.26.04.13.04.15.08.22.08h.52c.04 0 .09-.02.15.03.05.03.04.08.04.11v.64c0 .07.05.17.11.3.05.1.13.2.19.3.05.06 0 .06.15.18.14.12.18.19.3.26.07.04.1.07.14.07.08 0 .09.05.11.08"/><path fill="none" stroke="#4c4c4c" stroke-width="null" stroke-opacity="null" d="M5.33 18.07c.04.07.09.08.12.1.05.06.04.1.07.12.03.03.03.1.07.11.04.02.03.06.08.08H6.64c.12-.04.14-.08.22-.12l.18-.1c.1-.07.15-.04.19-.04.12-.02.14-.1.19-.12l.18-.07c.07-.03.14-.07.3-.11.04-.01.08-.02.19-.08.12-.06.22-.07.3-.1l.22-.12c.1-.06.18-.1.26-.11l.22-.08c.03 0 .23-.06.3-.1.06-.06.08-.02.15-.04.04-.02.07-.07.14-.12.1-.05.2-.02.3-.07l.22-.07.23-.08c.07-.02.14-.05.26-.07h.26c.2-.04.2-.04.33-.11.14-.08.26-.07.34-.08.11-.02.18-.07.33-.07.04 0 .08-.04.11-.04.04 0 .07-.06.15-.07l.22-.08.15-.07.15-.08c.04 0 .1-.09.15-.1.05-.03 2.54-1.3.15-.05M11.8 8.84l.04.12c0 .04.03.08.04.13 0 .08-.05.1-.04.15v.11l-.04.15-.03.1-.04.14-.05.15-.03.1c0 .04 0 .08-.03.11-.03.04-.1.05-.1.09-.01.03-.04.03-.06.06-.03.04-.08 0-.12 0-.05 0-.08.04-.16.03-.04 0-.08.02-.12 0l-.14-.04-.18-.05c-.25-.1-.26-.15-.3-.16-.03-.02-.08-.1-.12-.12l.01-.03M7.27 7.23a4.66 4.66 0 0 0-.5-.18c-.03-.01-.1-.04-.14-.01-.05.03-.1.01-.13.04-.03.04-.16.04-.22.1-.03.02-.05.06-.07.09-.03.04-.07.05-.11.12a.77.77 0 0 1-.07.1c-.02.03-.05.06-.06.1l-.07.1-.08.12c0 .04-.02.08-.03.11l-.05.18c-.01.04-.04.14 0 .15l-.02.04.02.08.02.05"/><path fill="none" stroke-width="NaN" stroke-opacity="null" stroke-linejoin="null" stroke-linecap="null" stroke="#4c4c4c" d="M11.87 1.57L9.68 3.43M13.17 2.87l-2.3 1.93M14.71 4.09l-2.8 2.24M15.95 5.54l-2.77 2.32M16.82 6.98L13.6 9.81M18.01 8.44l-3.1 2.63M18.13 10.4l-2.44 1.96M19.23 11.57l-2.51 2"/><path fill="none" stroke-width="NaN" stroke-opacity="null" d="M15.08 11c.63-.49-.04.04-.08.04-.08 0-.12.04-.2.04h-.28c-.08 0-.11-.02-.24-.04a.39.39 0 0 1-.16-.08l-.15-.12-.12-.08c-.08-.05-.08-.17-.12-.25-.04-.08-.06-.11-.08-.2v-.24c0-.04-.03-.13 0-.2.02-.06.12-.12.12-.16l.04-.04M11.78 1.64c.17-.1.3-.2.47-.26a.47.47 0 0 1 .27-.04c.02 0 .11 0 .25.1a1 1 0 0 1 .39.53c.05.2.03.3 0 .44-.03.2 0 .34-.08.5-.04.06-.1.08-.14.13v.06l-.08.06-.03.05M14.53 4.24c.18-.1.31-.2.5-.26.12-.04.2-.04.29-.03.02 0 .12 0 .26.1.22.15.38.36.43.54.05.19.04.3.02.43-.04.2 0 .33-.09.5-.04.05-.11.08-.14.13l-.01.05-.09.06-.03.05M16.62 7.13c.19-.1.32-.2.5-.26.12-.04.2-.05.29-.03.02 0 .12 0 .27.1.22.15.37.35.42.53.06.2.05.3.02.43-.04.21 0 .34-.09.5-.03.06-.1.08-.14.13v.05l-.1.07-.02.05M18 10.5c.15-.09.26-.17.41-.22.1-.04.17-.04.25-.03.01 0 .1 0 .22.09.18.12.31.3.35.45.05.16.04.26.02.37-.04.18 0 .29-.08.42-.03.06-.1.08-.12.12v.04l-.08.06-.02.04M16.9 13.38c.55-.42-.03.03-.07.03-.06 0-.1.04-.17.04h-.23c-.07 0-.1-.02-.2-.04a.33.33 0 0 1-.14-.07l-.14-.1-.1-.07c-.07-.04-.07-.14-.1-.21-.04-.07-.05-.1-.07-.18v-.2c0-.04-.03-.12 0-.18.02-.05.1-.1.1-.14l.03-.04" stroke="#4c4c4c"/><path fill="none" stroke-width="NaN" stroke-opacity="null" stroke-linejoin="null" stroke-linecap="null" stroke="#4c4c4c" d="M9.9 2.93l1.55 1.73M12.17 5.88l1.48 1.79"/></g></svg>