<svg width="20" height="20" xmlns="http://www.w3.org/2000/svg"><path fill="none" d="M-1-1h3.25v3.25H-1z"/><g><path fill="none" stroke-width="1.5" stroke-opacity="null" stroke-linejoin="null" stroke-linecap="null" stroke="#4c4c4c" d="M1.281 12.437l4.125 5.75"/><path fill="none" stroke="#4c4c4c" stroke-width="1.5" stroke-opacity="null" d="M2.693 9.338c.595-5.7-.008.165-.037.287-.028.122-2.7 5.32-.625 1.312"/><path fill="none" stroke-width="1.5" stroke-opacity="null" stroke-linejoin="null" stroke-linecap="null" stroke="#4c4c4c" d="M2.918 7.026l2.714-2.714"/><path fill="none" stroke="#4c4c4c" stroke-width="1.5" stroke-opacity="null" d="M5.547 4.547c.372-.297.52-.372.893-.372.371 0 1.443-.019 1.524 0 .08.02.118.063.186.112.042.03 8.104 9.517.185.149"/><path fill="none" stroke-width="1.5" stroke-opacity="null" stroke-linejoin="null" stroke-linecap="null" stroke="#4c4c4c" d="M7.133 7.057l3.618 3.195M5.623 8.14l3.735 3.833"/><path fill="none" stroke="#4c4c4c" stroke-width="1.5" stroke-opacity="null" d="M9.052 11.822c.074 0 .08.008.149.037.048.02.077.06.111.074.049.02.04.057.112.074.08.02.085.048.111.075.027.026.112 0 .223 0h.558c.186 0 .216.018.297.037.109.026.26.074.335.074h.335c.037 0 .085-.026.111 0 .026.027 0 .075 0 .112v.52c0 .075 0 .149.037.223.075.149.123.142.186.26.018.033.004.068.074.112.032.02.106.044.15.074.042.031.188.016.26.038.128.038.148.074.222.074h.521c.037 0 .081-.011.149.037.042.03.037.074.037.112v.632c0 .074.052.177.111.297.052.106.125.212.186.297.049.068.006.067.149.186.143.12.181.193.297.26.072.042.112.075.149.075.074 0 .085.048.111.074"/><path fill="none" stroke="#4c4c4c" stroke-width="1.5" stroke-opacity="null" d="M5.335 18.067c.037.074.085.085.111.111.053.053.048.086.074.112.027.026.026.091.075.111.034.015.026.055.074.075.034.014.074 0 .112 0h.706c.074 0 .113.01.149 0 .128-.039.148-.075.223-.112.074-.037.14-.084.186-.111.1-.062.149-.031.185-.037.117-.02.138-.092.186-.112.069-.028.09-.034.186-.074.069-.029.136-.074.298-.112a.856.856 0 0 0 .186-.074c.12-.059.223-.074.297-.112.074-.037.123-.05.223-.111a.879.879 0 0 1 .26-.112c.073-.017.188-.063.223-.074.036-.01.23-.063.298-.112.067-.048.08-.008.148-.037.049-.02.078-.068.149-.111.095-.059.189-.03.297-.075.077-.031.143-.055.223-.074.037-.009.143-.055.224-.074.072-.017.144-.056.26-.075.036-.006.187.014.26 0 .197-.038.201-.036.335-.111.133-.076.26-.063.334-.075.116-.018.186-.074.335-.074.037 0 .074-.037.111-.037.037 0 .068-.055.149-.074.108-.026.154-.046.223-.075.049-.02.114-.06.149-.074.048-.02.112-.066.148-.074.037-.009.1-.092.149-.112.049-.02 2.535-1.29.149-.037M12.013 8.863s.038.074.047.126c.006.036.038.073.047.125.011.074-.04.108-.035.145.009.052.02.08.011.117l-.034.145-.026.108-.034.145-.034.145-.025.108c-.009.037-.004.079-.026.109-.03.043-.09.055-.098.092-.008.036-.031.033-.053.063-.03.043-.08.005-.117.011-.052.008-.079.038-.162.038-.037 0-.08.02-.117.01l-.145-.033c-.072-.017-.11-.02-.18-.043-.251-.078-.273-.14-.31-.149-.035-.008-.09-.098-.127-.106l.009-.036M7.269 7.226a4.658 4.658 0 0 0-.49-.18c-.036-.01-.107-.031-.153-.006-.046.026-.105.012-.128.04-.033.042-.158.037-.22.092-.027.025-.043.068-.066.097-.033.041-.072.05-.113.122a.772.772 0 0 1-.066.097c-.024.03-.057.062-.067.097-.01.036-.048.065-.067.097-.04.073-.066.097-.077.133l-.03.107-.052.178c-.01.036-.041.143-.005.154l-.01.035.014.082.026.046"/><path fill="none" stroke-width="1.5" stroke-opacity="null" stroke-linejoin="null" stroke-linecap="null" stroke="#4c4c4c" d="M11.431 1.443L9.238 3.302M12.732 2.744l-2.304 1.934M14.28 3.837l-2.797 2.25M15.509 5.289l-2.765 2.319M16.939 6.73l-3.208 2.824M18.135 8.183l-3.096 2.645M18.06 10.775l-2.425 1.96M19.358 12.135L16.84 14.13"/><path fill="none" stroke-width="1.5" stroke-opacity="null" d="M15.328 10.498c.636-.485-.04.04-.08.04-.079 0-.118.04-.198.04h-.278c-.08 0-.115-.02-.239-.04a.389.389 0 0 1-.159-.08c-.046-.034-.113-.088-.159-.122-.072-.052-.085-.06-.12-.08-.075-.048-.079-.162-.118-.243-.04-.08-.06-.113-.08-.201-.01-.04 0-.162 0-.242 0-.04-.03-.128 0-.202.022-.053.12-.121.12-.162l.039-.04M11.34 1.518c.173-.104.296-.204.469-.268a.466.466 0 0 1 .271-.032c.022.004.115.003.249.098.204.147.348.351.392.53.047.19.034.305.01.436-.037.21 0 .339-.089.498-.035.065-.104.09-.135.138l-.01.053-.078.067-.03.049M14.091 3.99c.185-.1.315-.197.498-.258a.53.53 0 0 1 .29-.028c.023.004.123.004.267.1.22.149.378.354.427.533.052.188.041.301.018.431-.037.208.003.336-.089.493-.037.063-.11.087-.143.135l-.009.052-.083.065-.032.048M16.747 6.877c.185-.101.315-.198.498-.259a.53.53 0 0 1 .29-.028c.023.004.123.005.267.101.221.148.378.353.427.532.053.188.041.302.018.431-.037.208.003.336-.088.493-.037.063-.111.087-.143.135l-.01.052-.083.065-.032.048M17.984 10.886c.163-.109.28-.212.441-.28a.407.407 0 0 1 .254-.037c.02.003.108.001.23.096.19.146.32.352.358.534.04.192.028.308.004.442-.039.213-.007.344-.091.507-.035.066-.1.093-.129.143l-.01.053-.074.07-.03.05M17.166 13.818c.66-.399-.041.033-.083.033-.082 0-.123.034-.206.034H16.588c-.082 0-.118-.017-.247-.034a.453.453 0 0 1-.165-.066l-.165-.1c-.075-.043-.089-.049-.124-.066-.078-.04-.082-.133-.123-.2-.042-.066-.062-.094-.083-.166-.01-.033 0-.133 0-.2 0-.033-.031-.105 0-.166.022-.043.124-.1.124-.133l.041-.033" stroke="#4c4c4c"/><path fill="none" stroke-width="NaN" stroke-opacity="null" stroke-linejoin="null" stroke-linecap="null" stroke="#4c4c4c" d="M9.467 2.813l1.549 1.722M11.733 5.631l1.478 1.784"/></g></svg>