<svg width="20" height="20" xmlns="http://www.w3.org/2000/svg"><path fill="none" d="M-1-1h3.25v3.25H-1z"/><g><path fill="none" stroke="#4c4c4c" stroke-width="null" stroke-opacity="null" stroke-linejoin="null" stroke-linecap="null" d="M.656 2.59v15.583M1.031 3.09l8.625 1.062M10.236 4.2l8.527-1.157M19.219 2.59v15.833M9.906 3.652v13.334M.844 17.715l9.25-.938M9.868 16.784l9.607 1.226M3.281 5.965l4.563.437M3.844 10.777h4.88M2.594 15.59l5.75-.563M4.344 13.152l3.437-.187M4.711 8.234l3.641.274M12.281 13.152l3.188.25M12.469 11.34l4.562.125M11.719 8.777l4.875-.312M12.281 6.402l3.063-.312"/></g></svg>