<svg width="30" height="30" xmlns="http://www.w3.org/2000/svg"><path fill="none" d="M-1-1h32v32H-1z"/><g><path stroke-linecap="null" stroke-linejoin="null" stroke-opacity="null" stroke-width="null" fill="none" stroke="#4c4c4c" d="M5.76 13.703l9.625-7.368M6.45 13.787L3.002 9.825M9.359 4.976l5.56 1.384M9.74 4.802L3.69 9.914M9.781 11.031l7.876 7.876M11.118 9.981L22.224 19.1M9.781 11.031L20.47 21.72M20.219 21.469l2.751 2.438M21.983 18.868l2.765 3.183M22.594 23.844l2.062-.25M24.656 21.781l.25 2.313M8.656 21.906l6.046-6.233M10.844 23.594l5.674-5.675M16.344 13.906l2.22-2.22M19.639 9.308l3.229-3.935M18.406 15.656l2.196-2.195M25.995 7.972l-3.198 3.966"/><path stroke="#4c4c4c" d="M20.218 6.141c-7.515 2.703 2.654 13.416 5.69 4.221" stroke-opacity="null" stroke-width="null" fill="none"/><path stroke="#4c4c4c" stroke-linecap="null" stroke-linejoin="null" stroke-opacity="null" stroke-width="null" fill="none" d="M25.887 8.3l-.094 2.845M19.664 6.205l2.921-.66M19.908 8.916l2.94 2.424M8.797 21.729l-1.13 2.173M7.531 23.406l1.519 1.519M10.969 23.531l-2.438 1.25"/></g></svg>