<svg width="40" height="33" xmlns="http://www.w3.org/2000/svg" xmlns:xlink="http://www.w3.org/1999/xlink"><defs><path id="a" d="M.024.005h39.952v32.99H.024z"/></defs><g fill="none" fill-rule="evenodd"><mask id="b" fill="#fff"><use xlink:href="#a"/></mask><path d="M4.524 29.646h-3.32c-.611 0-1.106.49-1.106 1.097v1.097c0 .605.495 1.096 1.106 1.096h3.32c.611 0 1.106-.49 1.106-1.096v-1.097c0-.606-.495-1.097-1.106-1.097zm0-15.355h-3.32c-.611 0-1.106.491-1.106 1.097v1.096c0 .606.495 1.097 1.106 1.097h3.32c.611 0 1.106-.49 1.106-1.097v-1.096c0-.606-.495-1.097-1.106-1.097zm0-14.258h-3.32C.593.033.098.524.098 1.13v1.097c0 .606.495 1.096 1.106 1.096h3.32c.611 0 1.106-.49 1.106-1.096V1.13C5.63.524 5.135.033 4.524.033zm34.304 29.613H11.163c-.61 0-1.106.49-1.106 1.097v1.097c0 .605.495 1.096 1.106 1.096h27.665c.611 0 1.107-.49 1.107-1.096v-1.097c0-.606-.496-1.097-1.107-1.097zm0-15.355H11.163c-.61 0-1.106.491-1.106 1.097v1.096c0 .606.495 1.097 1.106 1.097h27.665c.611 0 1.107-.49 1.107-1.097v-1.096c0-.606-.496-1.097-1.107-1.097zm0-14.258H11.163c-.61 0-1.106.491-1.106 1.097v1.097c0 .606.495 1.096 1.106 1.096h27.665c.611 0 1.107-.49 1.107-1.096V1.13c0-.606-.496-1.097-1.107-1.097z" fill="#4A4A4A" mask="url(#b)"/></g></svg>