<svg width="20" height="20" xmlns="http://www.w3.org/2000/svg">
 <!-- Created with Method Draw - http://github.com/duopixel/Method-Draw/ -->
 <g>
  <title>background</title>
  <rect fill="none" id="canvas_background" height="22" width="22" y="-1" x="-1"/>
 </g>
 <g>
  <title>Layer 1</title>
  <path id="svg_3" d="m4.661828,15.225639c-2.176633,0 -3.941986,-1.737593 -3.941986,-3.879999l0,0c0.001314,-1.719486 1.139234,-3.168019 2.71143,-3.675653l0,0c0.054531,-1.461466 1.272605,-2.628053 2.769902,-2.629346l0,0c0.479608,0 0.929652,0.122867 1.320565,0.334327l0,0c0.831759,-1.361233 2.345482,-2.27368 4.078642,-2.274326l0,0c2.59317,0.001293 4.702133,2.040233 4.761919,4.577752l0,0c1.551829,0.51992 2.668725,1.961986 2.670039,3.667246l0,0c0,2.142406 -1.765353,3.879999 -3.941986,3.879999l0,0l-10.428525,0l0,0zm10.906819,-6.418165c-0.335726,-0.061433 -0.567646,-0.363427 -0.535453,-0.697753l0,0c0.011169,-0.11058 0.017739,-0.21728 0.017739,-0.321393l0,0c-0.004599,-1.874686 -1.545259,-3.391766 -3.449895,-3.394353l0,0c-1.477588,-0.001293 -2.734424,0.916973 -3.226516,2.205133l0,0c-0.080154,0.208873 -0.266741,0.36472 -0.491434,0.4074l0,0c-0.223379,0.04268 -0.455956,-0.033627 -0.609037,-0.19982l0,0c-0.273311,-0.29294 -0.6478,-0.472713 -1.072877,-0.472713l0,0c-0.804822,0.001293 -1.455907,0.64214 -1.458535,1.434306l0,0c0,0.087947 0.011169,0.17848 0.029565,0.274187l0,0c0.032193,0.172013 -0.005256,0.3492 -0.107091,0.49276l0,0c-0.101835,0.144207 -0.257543,0.239913 -0.431647,0.26772l0,0c-1.248296,0.202407 -2.202256,1.260353 -2.200942,2.542046l0,0c0.002628,1.428486 1.17734,2.583433 2.628648,2.587313l0,0l10.429182,0c1.451308,-0.00388 2.624049,-1.158826 2.627334,-2.587313l0,0c0.002628,-1.265526 -0.926367,-2.315066 -2.14904,-2.537519l0,0" stroke-width="null" fill="#eeeeee"/>
 </g>
</svg>