<svg width="44" height="41" xmlns="http://www.w3.org/2000/svg" xmlns:xlink="http://www.w3.org/1999/xlink"><defs><path id="a" d="M0 0h44v41H0z"/><path id="c" d="M0 0h44v41H0z"/><path id="e" d="M0 0h44v41H0z"/></defs><g fill="none" fill-rule="evenodd"><mask id="b" fill="#fff"><use xlink:href="#a"/></mask><path d="M26.815 18.099c.843-1.282 1.232-2.831 1.468-4.329a23.41 23.41 0 0 0 .262-3.911c-.015-1.352-.216-2.715-.716-3.977-.943-2.383-2.912-4.107-5.314-4.951a10.674 10.674 0 0 0-3.658-.604c-1.538.015-3.145.488-4.498 1.199a8.586 8.586 0 0 0-4.33 5.377c-.328 1.189-.397 2.401-.397 3.628 0 1.56.17 3.14.531 4.66.315 1.322.743 2.757 1.735 3.743.729.724 1.552 1.824 1.123 2.909-.118.298-.339.531-.585.73-.426.347-.914.618-1.396.877-1.471.791-2.99 1.49-4.455 2.293-1.116.612-2.224 1.259-3.241 2.026-.726.548-1.427 1.171-1.938 1.93a4.394 4.394 0 0 0-.754 2.07c-.054.617-.076 1.239-.12 1.856-.045.653-.134 1.318-.135 1.972 0 .615.49 1.117 1.101 1.148.6.031 1.177-.371 1.297-.971.044-.221.04-.458.056-.682l.09-1.294c.04-.596.056-1.2.121-1.794.07-.645.488-1.19.928-1.64.726-.742 1.62-1.327 2.501-1.866 1.332-.814 2.722-1.53 4.12-2.225 1.22-.606 2.504-1.214 3.542-2.116.653-.569 1.141-1.266 1.312-2.124.274-1.374-.181-2.67-.958-3.802-.372-.542-.872-.99-1.208-1.554-.39-.654-.62-1.4-.794-2.137-.339-1.431-.454-2.891-.454-4.359 0-1.267.141-2.544.66-3.713a5.957 5.957 0 0 1 2.17-2.556c1.157-.766 2.64-1.253 4.035-1.256a8 8 0 0 1 4.003 1.06c.983.57 1.8 1.376 2.34 2.379.637 1.179.859 2.546.868 3.873.009 1.312-.063 2.616-.303 3.908-.15.812-.354 1.625-.7 2.378a4.235 4.235 0 0 1-.474.816c-.188.245-.411.459-.603.7-.49.618-.927 1.31-1.185 2.058a4.35 4.35 0 0 0-.15 2.238c.016.086.127.104.196.104h2.03a.27.27 0 0 0 .13-.004.226.226 0 0 0 .118-.056c.063-.05.096-.12.053-.197-.416-.725-.09-1.547.317-2.193.368-.584.88-1.046 1.259-1.621" fill="#4A4A4A" mask="url(#b)"/><g><mask id="d" fill="#fff"><use xlink:href="#c"/></mask><path d="M28.247 10.625a21.37 21.37 0 0 1-.415 3.986c-.243 1.175-.615 2.326-1.272 3.339-.662.984-1.667 1.774-1.799 3.032-.029.276.003.56.102.82l.027.071-.048.001c-.193-.005-.387 0-.58 0h-.967c-.104 0-.241.023-.352.009.082.006.022-.08.01-.18-.01-.09-.016-.18-.02-.27-.065-1.29.534-2.47 1.323-3.454.387-.482.796-.895 1.069-1.459.284-.587.485-1.21.634-1.845.31-1.321.439-2.681.46-4.036.02-1.266-.055-2.546-.486-3.748-.819-2.283-2.83-3.806-5.165-4.326-2.337-.521-4.885.03-6.714 1.607a6.343 6.343 0 0 0-1.857 2.81c-.414 1.242-.467 2.57-.434 3.869.035 1.352.183 2.71.52 4.023.155.606.356 1.207.653 1.761.292.545.719.984 1.104 1.462.733.912 1.249 2.084 1.207 3.27-.043 1.21-.708 2.142-1.644 2.86-.985.754-2.12 1.283-3.226 1.833-1.188.591-2.369 1.199-3.513 1.87-1.077.633-2.17 1.303-3.053 2.194-.4.404-.767.865-.948 1.411-.195.588-.16 1.273-.195 1.885-.038.672-.087 1.343-.13 2.014-.032.508-.306.936-.845 1.01-.464.065-.926-.253-.994-.725-.04-.28.005-.592.026-.873.025-.345.061-.69.089-1.034.1-1.262.016-2.549.672-3.682.626-1.082 1.656-1.888 2.673-2.583 2.212-1.513 4.678-2.577 7.03-3.842.994-.535 2.243-1.19 2.246-2.48 0-.552-.226-1.085-.526-1.538-.313-.474-.73-.842-1.088-1.277-.7-.852-1.038-1.95-1.3-3.002a19.823 19.823 0 0 1-.573-3.939c-.107-2.443.118-4.934 1.527-7.007 1.273-1.872 3.3-3.081 5.483-3.599 2.357-.56 4.966-.134 7.056 1.081 1.845 1.072 3.21 2.779 3.808 4.829.366 1.255.446 2.55.425 3.852zm-1.33-6.928C25.56 1.947 23.56.793 21.413.306a10.399 10.399 0 0 0-7.434 1.09 8.97 8.97 0 0 0-4.058 4.858c-.436 1.252-.564 2.582-.582 3.9-.019 1.375.084 2.75.328 4.105.211 1.167.495 2.36 1.014 3.433.245.51.56.987.953 1.395.403.419.802.848 1.038 1.387.234.535.253 1.165-.156 1.622-.415.462-1.01.767-1.55 1.058-1.217.658-2.468 1.25-3.696 1.889-1.193.621-2.377 1.28-3.485 2.045-1.03.713-2.053 1.526-2.724 2.602a4.669 4.669 0 0 0-.652 1.672c-.111.652-.113 1.325-.154 1.985-.043.688-.134 1.374-.151 2.063-.013.53.143 1.013.583 1.342.852.636 2.171.142 2.393-.9.06-.279.054-.57.073-.852l.077-1.11c.021-.314.038-.629.055-.943.02-.361.018-.749.104-1.102.142-.583.571-1.052.995-1.454.466-.444.986-.823 1.523-1.176 1.129-.74 2.316-1.392 3.515-2.011 1.158-.598 2.357-1.13 3.477-1.797 1.002-.596 2.03-1.344 2.55-2.42.52-1.075.49-2.344.078-3.45a6.538 6.538 0 0 0-.865-1.595c-.374-.505-.838-.941-1.152-1.49-.66-1.154-.903-2.584-1.044-3.888-.146-1.348-.209-2.763-.008-4.109.182-1.222.632-2.4 1.464-3.327.8-.89 1.87-1.506 3.007-1.859 2.354-.73 5.17-.164 6.977 1.546 1.963 1.857 2.05 4.64 1.863 7.162-.1 1.358-.31 2.788-.862 4.044a4.358 4.358 0 0 1-.461.831c-.185.251-.413.467-.608.71a7.917 7.917 0 0 0-1.006 1.566 4.942 4.942 0 0 0-.49 1.853c-.018.329.005.657.054.982.043.281.164.471.467.5.33.03.68.002 1.012.002.354 0 .71.005 1.064 0 .248-.004.523-.092.598-.365.075-.272-.165-.532-.191-.804-.054-.562.252-1.123.56-1.57.356-.518.813-.956 1.164-1.478.683-1.053 1.08-2.26 1.332-3.48.275-1.331.408-2.69.435-4.048.049-2.495-.355-5.003-1.92-7.023z" fill="#4A4A4A" mask="url(#d)"/></g><g><mask id="f" fill="#fff"><use xlink:href="#e"/></mask><g mask="url(#f)"><path d="M34.281 27.844a3.634 3.634 0 0 0-3.632 3.627c0 2 1.63 3.629 3.632 3.629a3.634 3.634 0 0 0 3.632-3.629c0-2-1.63-3.627-3.632-3.627zm0 6.15c-1.39 0-2.52-1.13-2.52-2.518a2.521 2.521 0 0 1 5.04 0 2.522 2.522 0 0 1-2.52 2.518z" fill="#4A4A4A"/><path d="M34.281 35.16a3.695 3.695 0 0 1-3.692-3.689 3.694 3.694 0 0 1 3.692-3.687 3.694 3.694 0 0 1 3.693 3.687 3.695 3.695 0 0 1-3.693 3.689zm0-7.256c-1.97 0-3.572 1.6-3.572 3.567a3.574 3.574 0 0 0 3.572 3.569c1.97 0 3.572-1.601 3.572-3.569a3.573 3.573 0 0 0-3.572-3.567zm0 6.15a2.582 2.582 0 0 1-2.58-2.578 2.581 2.581 0 0 1 5.16 0 2.582 2.582 0 0 1-2.58 2.578zm0-5.035a2.461 2.461 0 0 0-2.46 2.457 2.462 2.462 0 0 0 2.46 2.458 2.462 2.462 0 0 0 2.46-2.458 2.461 2.461 0 0 0-2.46-2.457z" fill="#000"/><g fill="#4A4A4A"><path d="M41.888 32.601L43.97 31.3l-.891-3.905-2.446-.272-.711-.892.28-2.439-3.614-1.738-1.736 1.74h-1.141l-1.736-1.74-3.614 1.738.28 2.44-.71.89-2.445.273-.892 3.905 2.084 1.302.254 1.111-1.312 2.077 2.502 3.133 2.32-.816 1.028.495.807 2.32h4.011l.808-2.32 1.028-.495 2.32.816 2.501-3.133-1.312-2.077.254-1.11zm-1.855 4.894l-1.981-.696-1.936.931-.69 1.98h-2.287l-.69-1.98-1.935-.931-1.982.696-1.427-1.787 1.121-1.774-.478-2.09-1.78-1.114.508-2.228 2.09-.232 1.338-1.676-.24-2.083 2.062-.992 1.483 1.485h2.148l1.483-1.485 2.062.992-.24 2.083 1.34 1.676 2.089.232.508 2.227-1.78 1.114-.478 2.091 1.12 1.774-1.428 1.787z"/><path d="M36.332 40.98h-4.097l-.813-2.336-.983-.473-2.336.822-.027-.034-2.529-3.166 1.322-2.092-.243-1.062-2.1-1.312.912-3.988 2.462-.274.68-.852-.282-2.457 3.69-1.775 1.749 1.752h1.09l1.75-1.752 3.69 1.775-.282 2.456.68.853 2.464.274.01.042.9 3.946-2.098 1.312-.243 1.062 1.322 2.093-2.555 3.199-2.337-.821-.982.472-.814 2.336zm-4.011-.12h3.925l.803-2.303 1.072-.515 2.303.809 2.448-3.066-1.302-2.062.265-1.16 2.068-1.293-.873-3.821-2.428-.27-.742-.931.278-2.421-3.536-1.701-1.724 1.727h-1.192l-1.723-1.727-3.536 1.7.278 2.423-.742.93-2.427.27-.873 3.821 2.07 1.294.264 1.16-1.302 2.061 2.448 3.066 2.303-.81 1.073.516.802 2.303zm3.148-1.09h-2.373l-.696-1.996-1.89-.91-1.998.702-1.48-1.854 1.13-1.789-.467-2.042L25.9 30.76l.527-2.312 2.107-.234 1.307-1.637-.24-2.1 2.137-1.03 1.496 1.498h2.098l1.496-1.498 2.139 1.03-.242 2.1 1.308 1.637 2.107.234.527 2.31-1.795 1.124-.466 2.042 1.128 1.79-1.48 1.853-1.999-.702-1.89.91-.696 1.997zm-2.287-.12h2.201l.685-1.963 1.98-.953 1.965.69 1.374-1.72-1.11-1.759.489-2.14 1.765-1.104-.49-2.144-2.07-.23-1.371-1.715.237-2.065-1.984-.955-1.471 1.472h-2.198l-1.47-1.472-1.985.955.237 2.065-1.37 1.715-2.07.23-.49 2.145 1.765 1.104.49 2.14-1.112 1.758 1.373 1.72 1.965-.69 1.98.953.685 1.963z"/></g></g></g></g></svg>