<svg xmlns="http://www.w3.org/2000/svg" width="20" height="20"><rect width="100%" height="100%" fill="none"/><g><path fill="none" d="M-1-1h3.25v3.25H-1z"/></g><g class="currentLayer"><path stroke="#4c4c4c" d="M8.151 4.338l.416-2.718 2.437.072.484 2.627M11.868 15.686l-.405 2.72-2.437-.063-.495-2.625M4.31 11.527l-2.72-.405.063-2.437 2.625-.494M15.839 8.316l2.72.404-.063 2.438-2.624.494M7.198 15.245l-2.21 1.636-1.679-1.767 1.506-2.206M15.518 12.924l1.637 2.209-1.768 1.68-2.205-1.507M12.808 4.891l2.21-1.637 1.679 1.768-1.507 2.206M4.626 7.107L2.99 4.897l1.767-1.68 2.206 1.507" fill="none"/><ellipse ry="3.156" rx="3.156" cy="10.312" cx="9.938" stroke-width="null" stroke="#4c4c4c" fill="none"/></g></svg>