<svg width="64" height="64" xmlns="http://www.w3.org/2000/svg"><path fill="none" d="M-1-1h66v66H-1z"/><g><path stroke="#4c4c4c" d="M53.207 11.726c0 5.6-10.195 10.14-22.772 10.14m22.772-10.14c0 5.6-10.195 10.14-22.772 10.14-12.576 0-22.772-4.54-22.772-10.14m0 0c0-5.6 10.196-10.14 22.772-10.14 12.577 0 22.772 4.54 22.772 10.14v40.558c0 5.6-10.195 10.14-22.772 10.14-12.576 0-22.772-4.54-22.772-10.14V11.726z" stroke-opacity="null" stroke-width="3" fill="none"/><path stroke="#4c4c4c" stroke-linecap="null" stroke-linejoin="null" stroke-opacity="null" stroke-width="3" fill="none" d="M23.854 29.562h16.209M33.438 30.937l.125 16.377M34.414 46.05l-7.454 3.777M22.937 43.313l5.875 7.001"/></g></svg>