<svg xmlns="http://www.w3.org/2000/svg" width="20" height="20" style=""><rect id="backgroundrect" width="100%" height="100%" x="0" y="0" fill="none" stroke="none"/>
 <title>Pop down menu Icons Copy 5</title>

 <g style="">
  <title>background</title>
  <rect x="-1" y="-1" width="3.2499630451202393" height="3.2499630451202393" id="canvas_background" fill="none"/>
 </g>
 <g style="" class="currentLayer">
  <title>Layer 1</title>
  <path transform="rotate(0.22615046799182892 9.824812889099064,2.9846410751343995) " stroke="#eeeeee" id="svg_5" d="m8.156495,4.344496l0.404876,-2.71971l2.437179,0.062492l0.494581,2.624654" opacity="1" fill-opacity="null" fill="none" class="" stroke-opacity="1"/>
  <path transform="rotate(-180 10.19974708557129,17.04538345336914) " stroke="#eeeeee" id="svg_7" d="m8.53143,18.405239l0.404876,-2.71971l2.437179,0.062492l0.494581,2.624654" opacity="1" fill-opacity="null" fill="none" class="" stroke-opacity="1"/>
  <path transform="rotate(-90 2.95069479942322,9.85883140563965) " stroke="#eeeeee" id="svg_8" d="m1.282377,11.218687l0.404876,-2.71971l2.437179,0.062492l0.494581,2.624654" opacity="1" fill-opacity="null" fill="none" class="" stroke-opacity="1"/>
  <path transform="rotate(90 17.198848724365238,9.983822822570803) " stroke="#eeeeee" id="svg_9" d="m15.530531,11.343678l0.404876,-2.71971l2.437179,0.062492l0.494581,2.624654" opacity="1" fill-opacity="null" fill="none" class="" stroke-opacity="1"/>
  <path transform="rotate(-135 5.056290149688722,15.026506423950197) " stroke="#eeeeee" id="svg_10" d="m3.387972348611355,16.386362348611353 l0.4048760000000001,-2.71971 l2.437179,0.06249200000000002 l0.4945810000000001,2.624654 " opacity="1" fill-opacity="null" fill="none" class="" stroke-opacity="1"/>
  <path transform="rotate(135 15.299879074096681,15.064772605895994) " stroke="#eeeeee" id="svg_11" d="m13.63156030277729,16.424627651388644 l0.4048760000000002,-2.71971 l2.437179,0.062492000000000034 l0.49458100000000016,2.624654 " opacity="1" fill-opacity="null" fill="none" class="" stroke-opacity="1"/>
  <path transform="rotate(45 14.949186325073244,5.109385490417479) " stroke="#eeeeee" id="svg_12" d="m13.280868,6.46924l0.404876,-2.71971l2.437179,0.062492l0.494581,2.624654" opacity="1" fill-opacity="null" fill="none" class="" stroke-opacity="1"/>
  <path transform="rotate(-45 4.844604969024657,4.965260982513428) " stroke="#eeeeee" id="svg_13" d="m3.1762866513886454,6.325116348611354 l0.4048760000000001,-2.71971 l2.437179,0.06249200000000002 l0.4945810000000001,2.624654 " opacity="1" fill-opacity="null" fill="none" class="" stroke-opacity="1"/>
  <ellipse ry="3.1558339595794678" rx="3.1558339595794678" id="svg_14" cy="10.312458992004395" cx="9.937525749206543" fill-opacity="null" stroke-width="null" stroke="#eeeeee" fill="none" class="" opacity="1" stroke-opacity="1"/>
 </g>
</svg>