<svg width="38" height="38" xmlns="http://www.w3.org/2000/svg">
 <!-- Generator: Sketch 40.3 (33839) - http://www.bohemiancoding.com/sketch -->
 <title>search</title>
 <desc>Created with Sketch.</desc>

 <g>
  <title>background</title>
  <rect fill="none" id="canvas_background" height="40" width="40" y="-1" x="-1"/>
 </g>
 <g>
  <title>Layer 1</title>
  <g fill-rule="evenodd" fill="none" id="Page-1">
   <g id="search">
    <rect height="44" width="44" y="-2.625" x="-3" opacity="0" fill="#666666" id="Rectangle-45"/>
    <path fill="#666666" id="Shape" d="m29.050545,26.604703c1.890467,-2.615933 3.003863,-5.825222 3.003863,-9.293448c0,-8.800098 -7.171297,-15.934392 -16.017065,-15.934392c-8.845767,0 -16.017065,7.134338 -16.017065,15.934392c0,8.802048 7.171298,15.936342 16.017065,15.936342c4.147763,0 7.927398,-1.568615 10.772155,-4.142216l8.872805,8.231744l2.296076,-2.449635l-8.927834,-8.282787l0,0zm-12.851279,3.703462c-7.190146,0 -13.038377,-5.788652 -13.038377,-12.903361c0,-7.112889 5.848231,-12.903362 13.038377,-12.903362c7.190146,0 12.900631,5.790473 12.900631,12.903362c0,7.114709 -5.710485,12.903361 -12.900631,12.903361l0,0z"/>
   </g>
  </g>
 </g>
</svg>