<svg width="64" height="64" xmlns="http://www.w3.org/2000/svg"><path fill="none" d="M-1-1h66v66H-1z"/><g><path fill="none" stroke-width="3" stroke-opacity="null" d="M53.207 11.913c0 5.6-10.195 10.14-22.772 10.14m22.772-10.14c0 5.6-10.195 10.14-22.772 10.14-12.576 0-22.772-4.54-22.772-10.14m0 0c0-5.6 10.196-10.14 22.772-10.14 12.577 0 22.772 4.54 22.772 10.14v40.559c0 5.6-10.195 10.14-22.772 10.14-12.576 0-22.772-4.54-22.772-10.14V11.913z" stroke="#4c4c4c"/><path stroke="#4c4c4c" stroke-linecap="null" stroke-linejoin="null" stroke-opacity="null" stroke-width="3" fill="none" d="M21.25 49.375l18.73-18.73M21.521 30.396l19.507 19.507"/></g></svg>