<svg width="64" height="64" xmlns="http://www.w3.org/2000/svg"><path fill="none" d="M-1-1h66v66H-1z"/><g><path stroke="#4c4c4c" d="M53.207 11.726c0 5.6-10.195 10.14-22.772 10.14m22.772-10.14c0 5.6-10.195 10.14-22.772 10.14-12.576 0-22.772-4.54-22.772-10.14m0 0c0-5.6 10.196-10.14 22.772-10.14 12.577 0 22.772 4.54 22.772 10.14v40.558c0 5.6-10.195 10.14-22.772 10.14-12.576 0-22.772-4.54-22.772-10.14V11.726z" stroke-opacity="null" stroke-width="3" fill="none"/><path stroke="null" fill="#4c4c4c" d="M39.865 31.847c-2.356-2.452-5.59-3.975-9.183-3.975-7.184 0-12.986 6.055-12.986 13.531s5.802 13.53 12.986 13.53c6.063 0 11.118-4.312 12.564-10.147h-3.38c-1.333 3.94-4.942 6.765-9.184 6.765-5.38 0-9.752-4.55-9.752-10.148s4.372-10.148 9.752-10.148c2.698 0 5.104 1.167 6.86 3.01l-5.234 5.447h11.377v-11.84l-3.82 3.975z"/></g></svg>