<svg width="44" height="44" xmlns="http://www.w3.org/2000/svg"><path fill="none" d="M-1-1h46v46H-1z"/><g><path d="M3.279 41.418c-.094.02-.192.027-.293.02a1.066 1.066 0 0 1-.983-1.14l.019-.275a.967.967 0 0 1 .038-.54l.194-2.77c0-3.087 2.824-5.083 9.679-8.452 3.2-1.575 3.679-2.095 3.679-3.321a1.34 1.34 0 0 0-.012-.174c-.052-.406-.273-.903-.613-1.422a6.44 6.44 0 0 0-.68-.872c-.907-.943-1.516-2.334-1.914-4.06a21.09 21.09 0 0 1-.457-3.14 20.67 20.67 0 0 1-.064-1.567v-.539c0-4.353 1.827-7.261 4.836-8.876a11.128 11.128 0 0 1 3.246-1.12A9.28 9.28 0 0 1 21.481 3h.543c.325.003.852.047 1.518.17a11.13 11.13 0 0 1 3.246 1.12c3.01 1.615 4.837 4.523 4.837 8.876v.539c.002.359-.014.9-.064 1.566a21.095 21.095 0 0 1-.458 3.14c-.398 1.727-1.007 3.118-1.915 4.061a6.44 6.44 0 0 0-.678.872c-.341.519-.562 1.016-.614 1.422a1.363 1.363 0 0 0-.012.174c0 1.226.478 1.746 3.68 3.32 6.855 3.37 9.678 5.366 9.678 8.453l-.006-.116.397 3.66a.98.98 0 0 1 .005.171l.002.052a.96.96 0 0 1-.96.96H3.279v-.022zm.904-1.9l.19-2.73c.002-1.86 2.672-3.747 8.49-6.607 3.851-1.894 4.87-3.003 4.87-5.241 0-.149-.01-.298-.03-.449-.1-.784-.444-1.56-.948-2.327a8.458 8.458 0 0 0-.925-1.18c-.586-.609-1.052-1.673-1.37-3.055a19.334 19.334 0 0 1-.467-4.214v-.549c0-3.543 1.378-5.738 3.712-6.99a9.047 9.047 0 0 1 2.631-.904 7.336 7.336 0 0 1 1.154-.135h.525c.2.002.608.036 1.145.135a9.07 9.07 0 0 1 2.632.904c2.333 1.252 3.712 3.447 3.712 6.99v.549a19.335 19.335 0 0 1-.467 4.214c-.319 1.382-.784 2.446-1.371 3.056-.242.251-.583.66-.924 1.18-.504.766-.848 1.542-.949 2.326-.02.15-.03.3-.03.449 0 2.238 1.02 3.347 4.87 5.24 5.819 2.861 8.488 4.748 8.488 6.533l.007.116.292 2.69H4.183v-.001z" fill-rule="evenodd" fill="#1890ff"/><path d="M2.223 41.792c-.1.02-.203.028-.31.02a1.123 1.094 0 0 1-1.035-1.169l.02-.282a1.019.992 0 0 1 .04-.554l.205-2.842c0-3.167 2.975-5.215 10.197-8.672 3.372-1.616 3.877-2.15 3.877-3.407a1.34 1.34 0 0 0-.013-.179c-.055-.416-.288-.926-.646-1.459a6.785 6.608 0 0 0-.716-.894c-.956-.968-1.598-2.395-2.017-4.166a22.22 21.639 0 0 1-.481-3.222 21.778 21.208 0 0 1-.068-1.608v-.553c0-4.466 1.925-7.45 5.095-9.106a11.725 11.417 0 0 1 3.42-1.15 9.777 9.521 0 0 1 1.61-.174h.571c.343.003.898.048 1.6.174a11.727 11.42 0 0 1 3.42 1.15c3.171 1.657 5.096 4.64 5.096 9.106v.553c.002.369-.015.924-.067 1.607a22.226 21.644 0 0 1-.483 3.222c-.42 1.772-1.06 3.199-2.018 4.167a6.785 6.608 0 0 0-.714.894c-.36.533-.592 1.043-.647 1.46a1.436 1.398 0 0 0-.012.178c0 1.258.503 1.791 3.877 3.406 7.222 3.458 10.197 5.506 10.197 8.673l-.007-.119.419 3.755a.98.98 0 0 1 .005.176l.002.053a1.011.985 0 0 1-1.011.985H2.223v-.023zm.952-1.949l.2-2.801c.002-1.908 2.815-3.845 8.945-6.779 4.058-1.943 5.131-3.081 5.131-5.377 0-.153-.01-.306-.031-.46-.106-.805-.468-1.602-.999-2.388a8.911 8.678 0 0 0-.975-1.211c-.617-.625-1.108-1.717-1.443-3.135a20.37 19.837 0 0 1-.492-4.323v-.564c0-3.635 1.452-5.887 3.91-7.171a9.532 9.282 0 0 1 2.773-.928 7.73 7.527 0 0 1 1.216-.138h.553c.21.002.64.037 1.206.138.95.17 1.897.471 2.773.928 2.459 1.284 3.911 3.536 3.911 7.171v.564a20.372 19.838 0 0 1-.492 4.323c-.336 1.418-.826 2.51-1.444 3.136a8.634 8.634 0 0 0-.974 1.21c-.53.786-.893 1.583-1 2.387a3.396 3.396 0 0 0-.031.46c0 2.297 1.075 3.435 5.13 5.377 6.132 2.935 8.944 4.872 8.944 6.703l.007.119.308 2.76H3.175v-.001z" fill-rule="evenodd" fill="#5ac0e3" stroke-width="2" stroke="null"/></g></svg>