<svg width="30" height="30" xmlns="http://www.w3.org/2000/svg"><path fill="none" d="M-1-1h3.875v3.875H-1z"/><g><path fill="none" stroke="#4c4c4c" stroke-width="1.2" stroke-opacity="null" d="M27.156 12.781c-1.062-.625-7.125-3.375-7.656-3.469-2.031-.718-6.906-1.343-6.938-1.374-2.593-.532-5.156-.47-5.187-.5-2.531.03-3.594.656-3.938.937C1.72 10.156 1.97 10.594 1.376 11.5c-.156 1.656-.281 1.469-.438 3.188"/><path fill="none" stroke-width="1.2" stroke-opacity="null" d="M27.156 16.498c-1.062.615-7.125 3.194-7.656 3.286-2.281.713-6.906 1.444-6.938 1.475-2.593.522-5.156.46-5.187.491-2.531-.03-3.594-.645-3.938-.921-1.718-1.75-1.468-2.18-2.062-3.071-.156-1.628-.281-1.444-.438-3.133" stroke="#4c4c4c"/><path fill="none" stroke="#4c4c4c" stroke-width="null" stroke-opacity="null" d="M27.094 12.719c.687.625 1.312 1 1.281.969.031-.22.219 1.968.188 1.937.218-.094-.907.531-1.75.938"/><path fill="none" stroke-width="1.2" stroke-opacity="null" stroke-linejoin="null" stroke-linecap="null" stroke="#4c4c4c" d="M23.594 11.469l1.812-3.5M25.156 8.156l2.938-1.437M27.781 7.094l.125 6.187M25.258 20.48l-1.767-2.647M25.016 20.282l3.093 1.06M27.656 16.344l.108 4.562"/><path fill="none" stroke-width="1.2" stroke-opacity="null" d="M28.094 13.596c-1.098-.398-7.363-2.073-7.912-2.133-2.293-.219-7.137-.937-7.169-.957-2.68-.338-5.328-.299-5.36-.319-2.616.02-3.714.42-4.07.599-1.776 1.136-1.517 1.415-2.13 1.993-.162 1.057-.292.937-.453 2.033M27.969 15.91c-1.093.34-7.33 1.765-7.876 1.816-2.282.187-7.103.798-7.135.815-2.668.288-5.304.255-5.336.272-2.604-.017-3.697-.357-4.05-.51-1.768-.967-1.511-1.205-2.122-1.697-.16-.9-.29-.798-.45-1.731" stroke="#4c4c4c"/><path fill="none" stroke="#4c4c4c" stroke-width="1.2" stroke-opacity="null" stroke-linejoin="null" stroke-linecap="null" d="M1.469 14.406l26.937.375M6.281 21.531l2.688 3.25M16.156 20.281l-2.375 4.5M14.219 24.594H8.656"/></g></svg>