<svg width="20" height="20" xmlns="http://www.w3.org/2000/svg"><path fill="none" d="M-1-1h22v22H-1z"/><g><path d="M15.053 13.657a7.969 7.969 0 0 0 1.464-4.62c0-4.376-3.494-7.923-7.804-7.923-4.31 0-7.804 3.548-7.804 7.923 0 4.376 3.494 7.923 7.804 7.923 2.02 0 3.862-.78 5.249-2.06l4.323 4.093 1.118-1.218-4.35-4.118zm-6.261 1.841c-3.503 0-6.353-2.878-6.353-6.415 0-3.536 2.85-6.415 6.353-6.415 3.503 0 6.286 2.879 6.286 6.415 0 3.537-2.783 6.415-6.286 6.415z" fill="#666" stroke="null" fill-rule="evenodd"/><path stroke="#666" stroke-linecap="null" stroke-linejoin="null" stroke-width="1.5" fill="none" d="M8.719 5.156l.062 7.688M12.594 8.969l-7.688.062"/></g></svg>