<?xml version="1.0" encoding="utf-8"?>
<!-- Generator: Adobe Illustrator 16.0.0, SVG Export Plug-In . SVG Version: 6.00 Build 0)  -->
<!DOCTYPE svg PUBLIC "-//W3C//DTD SVG 1.1//EN" "http://www.w3.org/Graphics/SVG/1.1/DTD/svg11.dtd">
<svg version="1.1" id="Layer_1" xmlns="http://www.w3.org/2000/svg" xmlns:xlink="http://www.w3.org/1999/xlink" x="0px" y="0px"
	 width="256px" height="256px" viewBox="0 0 256 256" enable-background="new 0 0 256 256" xml:space="preserve">
<path d="M256,244c0,6.627-5.373,12-12,12H12c-6.627,0-12-5.373-12-12V12C0,5.373,5.373,0,12,0h232c6.627,0,12,5.373,12,12V244z"/>
<g>
	<path fill="#FFFFFF" d="M230.604,128.354l-33.3-34.429l17.854-50.047l-59.356-11.968l-37.1,17.612L92.356,30.218L48.42,51.348
		v43.851l-23.612,38.272l54.622,1.111l-27.809,32.346l18.872,46.191l47.915-6.246l56.663,18.91l-9.899-39.865l40.447-3.424
		L230.604,128.354z M91.476,89.255l24.756-27.296l6.864,33.747L91.476,89.255z M64.18,162.705l21.583-25.1l11.481,26.234
		L64.18,162.705z M91.122,132.965l28.964-22.82l-17.846,48.219L91.122,132.965z M90.744,124.642l-1.705-28.974l30.566,6.234
		L90.744,124.642z M55.581,55.421l30.964-14.894l-3.223,43.876L55.581,55.421z M78.38,89.031L55.19,92.268V64.806L78.38,89.031z
		 M82.234,95.33l1.744,29.595L58.82,98.599L82.234,95.33z M77.332,127.771l-40.542-0.785l15.597-25.317L77.332,127.771z
		 M100.532,170.729l12.759,29.982l-38.502,5.018l-14.87-36.395L100.532,170.729z M171.433,128.995l21.802-29.538l24.5,25.332
		L171.433,128.995z M197.896,176.561l-33.338,2.617l2.424-37.047L197.896,176.561z M127.078,202.629l31.556-14.938l6.896,27.77
		L127.078,202.629z M157.934,132.053l0.37,0.412l-49.171,26.783l19.743-53.348L157.934,132.053z M160.4,139.033l-2.583,39.457
		l-46.342-12.809L160.4,139.033z M185.284,98.825l-21.611,29.283l-27.98-25.185L185.284,98.825z M130.185,96.584l-8.352-41.051
		l33.192-15.758l33.392,51.997L130.185,96.584z M151.244,183.697l-31.49,14.908l-11.387-26.758L151.244,183.697z M170.469,135.881
		l51.378-4.668l-18.87,40.873L170.469,135.881z M206.176,48.911l-13.3,37.274l-29.794-46.394L206.176,48.911z M90.409,80.351
		l3.01-40.96l20.508,15.029L90.409,80.351z M90.409,80.351"/>
</g>
</svg>
