<?xml version="1.0" encoding="utf-8"?>
<!-- Generator: Adobe Illustrator 24.2.1, SVG Export Plug-In . SVG Version: 6.00 Build 0)  -->
<svg version="1.1" id="Слой_1" xmlns="http://www.w3.org/2000/svg" xmlns:xlink="http://www.w3.org/1999/xlink" x="0px" y="0px"
	 viewBox="0 0 256 256" style="enable-background:new 0 0 256 256;" xml:space="preserve">
<style type="text/css">
	.st0{fill:none;}
	.st1{fill:#FFFFFF;}
	.st2{fill:#4D4D4D;}
</style>
<g>
	<rect id="canvas_background" x="-1" y="-1" class="st0" width="582" height="402"/>
</g>
<g>
	<g id="svg_1">
		
			<image style="overflow:visible;opacity:0.74;enable-background:new    ;" width="276" height="276" id="svg_2" xlink:href="42B6BB0A733471C3.png"  transform="matrix(1 0 0 1 -10.3902 -10.0799)">
		</image>
		<g id="svg_3">
			<path id="svg_4" class="st1" d="M235.6,225c0,6-4.9,10.9-10.9,10.9H30.5c-6,0-10.9-4.9-10.9-10.9V30.9c0-6,4.9-10.9,10.9-10.9
				h194.1c6,0,10.9,4.9,10.9,10.9V225z"/>
		</g>
	</g>
	<path class="st2" d="M134.7,166.9c0,0-15.6-10.2-37.4-8.5c-21.8,1.7-24.1,2.8-31.5,5.3c-7.4,2.5-8.8,3.8-11.7,4.2
		c-0.7,0.1-3.3-0.3-2.1-3.5c1.3-3.2,55-94.9,62.8-107.6s10.2-18.4,13.3-18.4c2.5,0,3.2-0.1,13.8,18.3c11.7,20.1,70.4,120.4,73,124.3
		s7.6,10.5,3.3,17.5c-4.1,6.7-25.5,20.1-47.3,19c-21.8-1.1-53-18.8-61.6-21.8c-8.6-3-26.2-6.1-42.2-0.9s-29.2,11.7-30.3,11.9
		c-1.1,0.2-3,0,0-3.9c3-3.9,19.8-28.4,44.8-31.4c29.3-3.6,31.3-0.6,59.2,13.2c27.9,13.8,45.8,5.2,45,1.5c-0.7-3.7-45-77.5-48-82.8
		c-4.3-7.8-7.8-16.4-10.7-12.7c-2.8,3.6-28.4,46.5-28.9,48c-0.6,1.5-2,3.7,2,4.3c4.1,0.6,14.1,2.6,23.3,8.7
		c9.1,6.1,14.3,10.3,14.5,13C138.3,168.5,134.7,166.9,134.7,166.9z"/>
</g>
</svg>
